# xmcd
# 
# Track frame offsets:
#     150
#     18524
#     35512
#     57211
#     83488
#     108738
#     125901
#     141800
#     160716
#     208391
#     223325
#     249699
#     275100
# 
# Disc length: 4207
# 
# Revision: 1
# Processed by: cddbd v1.5.2PL0 Copyright (c) Steve Scherf et al.
# Submitted via: fre:ac v1.0.17
# 
DISCID=cd106d0d
DTITLE=MUTEMATH - Armistice Live
DYEAR=2010
DGENRE=Alternative
TTITLE0=The Nerve [Live]
TTITLE1=Backfire [Live]
TTITLE2=Clipping [Live]
TTITLE3=Control [Live]
TTITLE4=Armistice [Live]
TTITLE5=You Are Mine [Live]
TTITLE6=Odds [Live]
TTITLE7=Typical [Live]
TTITLE8=Burden [Live]
TTITLE9=Pins And Needles [Live]
TTITLE10=Spotlight [Live]
TTITLE11=Reset [Live]
TTITLE12=Break The Same [Live]
EXTD=
EXTT0=
EXTT1=
EXTT2=
EXTT3=
EXTT4=
EXTT5=
EXTT6=
EXTT7=
EXTT8=
EXTT9=
EXTT10=
EXTT11=
EXTT12=
PLAYORDER=
